<svg id="Layer_1" data-name="Layer 1" xmlns="http://www.w3.org/2000/svg" viewBox="0 0 20 20" style="fill: #1f1f1f"><title>Clips</title><path d="M5.58,19.35a3.83,3.83,0,0,1-2.71-6.53L11,4.74A2.29,2.29,0,1,1,14.19,8L8.25,13.93A.89.89,0,1,1,7,12.67l5.94-5.94a.52.52,0,0,0,0-.73.51.51,0,0,0-.72,0L4.13,14.08A2,2,0,0,0,7,17L15.69,8.3a2.65,2.65,0,0,0,0-3.74L14.34,3.21a2.65,2.65,0,0,0-3.74,0L3.84,10a.89.89,0,0,1-1.26,0,.88.88,0,0,1,0-1.25L9.34,2A4.42,4.42,0,0,1,15.6,2L17,3.3a4.42,4.42,0,0,1,0,6.26L8.28,18.22A3.77,3.77,0,0,1,5.58,19.35Z"/></svg>