<svg id="Layer_1" data-name="Layer 1" xmlns="http://www.w3.org/2000/svg" viewBox="0 0 20 20"><defs><style>.cls-1{fill:#fff;}</style></defs><title>CopyLink</title><path d="M.79,15c0-.25.1-.5.17-.74a3.67,3.67,0,0,1,1-1.64L6.21,8.37a3.78,3.78,0,0,1,4.47-.76,4.81,4.81,0,0,1,1,.7.75.75,0,0,1,0,1.07.76.76,0,0,1-1.07,0,2.48,2.48,0,0,0-1.27-.66,2.26,2.26,0,0,0-1.91.53.86.86,0,0,0-.14.13C5.89,10.86,4.45,12.29,3,13.72a2.3,2.3,0,0,0,3.12,3.37c.76-.71,1.49-1.47,2.22-2.2a.8.8,0,0,1,.82-.25.77.77,0,0,1,.39,1.2l-.08.09L7.31,18.12a3.77,3.77,0,0,1-2.23,1.06l-.08,0H4.28l-.17,0A3.8,3.8,0,0,1,1,16.67a7.31,7.31,0,0,1-.23-1Z"/><path class="cls-1" d="M.79,15.72a7.31,7.31,0,0,0,.23,1,3.8,3.8,0,0,0,3.09,2.51l.17,0H.79Z"/><path d="M10.47,13.24a3.74,3.74,0,0,1-2.56-1.11.76.76,0,0,1,1-1.12,2.36,2.36,0,0,0,1.79.69,2.19,2.19,0,0,0,1.38-.57c.24-.21.46-.44.69-.67L17,6.3a2.3,2.3,0,0,0-3.11-3.38c-.72.66-1.39,1.36-2.07,2.05l-.6.6a.79.79,0,0,1-1.13,0,.77.77,0,0,1,0-1.11c.85-.86,1.7-1.73,2.57-2.57a3.83,3.83,0,0,1,5.85,4.91A4.46,4.46,0,0,1,18,7.4c-1.54,1.56-3.09,3.1-4.64,4.65A3.93,3.93,0,0,1,10.47,13.24Z"/></svg>