<svg id="Layer_1" data-name="Layer 1" xmlns="http://www.w3.org/2000/svg" viewBox="0 0 20 20"><title>NewTab</title><path d="M3.68,4.64V16.31H15.36v-.23c0-1.21,0-2.41,0-3.61a.94.94,0,0,1,1.2-1,.87.87,0,0,1,.71.71,2.22,2.22,0,0,1,0,.37c0,1.2,0,2.41,0,3.62a2,2,0,0,1-2.11,2.1H3.82a2,2,0,0,1-2.1-2.1V4.79a2,2,0,0,1,2.1-2.1H7.51a.94.94,0,0,1,1,1.22.9.9,0,0,1-1,.73c-1.2,0-2.4,0-3.6,0Z"/><path d="M15,3.67c-.84,0-1.61,0-2.38,0a1.54,1.54,0,0,1-.48-.06.9.9,0,0,1-.61-1.08.88.88,0,0,1,.85-.8h5a.92.92,0,0,1,1,1c0,1.6,0,3.2,0,4.81a.92.92,0,0,1-1.07,1,.88.88,0,0,1-.85-.75,2,2,0,0,1,0-.34c0-.71,0-1.42,0-2.13a2.45,2.45,0,0,0,0-.25l-.2.19L11.2,10.16a.93.93,0,0,1-1.49-.09.92.92,0,0,1,0-1.16l.21-.21,4.8-4.81A2.39,2.39,0,0,0,15,3.67Z"/></svg>